<svg width="48" height="42" viewBox="0 0 48 42" fill="none" xmlns="http://www.w3.org/2000/svg">
<path d="M0.00585938 6C0.00585937 4.4087 0.638 2.88258 1.76322 1.75736C2.88844 0.632141 4.41456 0 6.00586 0H42.0059C43.5972 0 45.1233 0.632141 46.2485 1.75736C47.3737 2.88258 48.0059 4.4087 48.0059 6V36C48.0059 37.5913 47.3737 39.1174 46.2485 40.2426C45.1233 41.3679 43.5972 42 42.0059 42H6.00586C4.41456 42 2.88844 41.3679 1.76322 40.2426C0.638 39.1174 0.00585938 37.5913 0.00585938 36V6ZM3.00586 33V36C3.00586 36.7956 3.32193 37.5587 3.88454 38.1213C4.44715 38.6839 5.21021 39 6.00586 39H42.0059C42.8015 39 43.5646 38.6839 44.1272 38.1213C44.6898 37.5587 45.0059 36.7956 45.0059 36V25.5L33.6749 19.659C33.3935 19.5181 33.075 19.4692 32.7644 19.5193C32.4537 19.5693 32.1667 19.7158 31.9439 19.938L20.8139 31.068L12.8339 25.752C12.5457 25.5602 12.2001 25.4739 11.8557 25.5078C11.5112 25.5417 11.1891 25.6937 10.9439 25.938L3.00586 33ZM18.0059 13.5C18.0059 12.3065 17.5318 11.1619 16.6878 10.318C15.8439 9.47411 14.6993 9 13.5059 9C12.3124 9 11.1678 9.47411 10.3239 10.318C9.47996 11.1619 9.00586 12.3065 9.00586 13.5C9.00586 14.6935 9.47996 15.8381 10.3239 16.682C11.1678 17.5259 12.3124 18 13.5059 18C14.6993 18 15.8439 17.5259 16.6878 16.682C17.5318 15.8381 18.0059 14.6935 18.0059 13.5Z" fill="#D8DCE0"/>
</svg>
