<svg width="24" height="24" viewBox="0 0 24 24" fill="none" xmlns="http://www.w3.org/2000/svg">
<path d="M11.9893 2C6.47424 2 1.99823 6.48 1.99823 12C1.99823 17.52 6.47424 22 11.9893 22C17.5044 22 21.9804 17.52 21.9804 12C21.9804 6.48 17.5044 2 11.9893 2ZM7.06372 18.28C7.49333 17.38 10.111 16.5 11.9893 16.5C13.8677 16.5 16.4953 17.38 16.9149 18.28C15.5562 19.36 13.8477 20 11.9893 20C10.131 20 8.42251 19.36 7.06372 18.28ZM18.3437 16.83C16.9149 15.09 13.448 14.5 11.9893 14.5C10.5306 14.5 7.06372 15.09 5.63499 16.83C4.6159 15.49 3.99645 13.82 3.99645 12C3.99645 7.59 7.58325 4 11.9893 4C16.3954 4 19.9822 7.59 19.9822 12C19.9822 13.82 19.3628 15.49 18.3437 16.83ZM11.9893 6C10.0511 6 8.49244 7.56 8.49244 9.5C8.49244 11.44 10.0511 13 11.9893 13C13.9276 13 15.4862 11.44 15.4862 9.5C15.4862 7.56 13.9276 6 11.9893 6ZM11.9893 11C11.1601 11 10.4907 10.33 10.4907 9.5C10.4907 8.67 11.1601 8 11.9893 8C12.8186 8 13.488 8.67 13.488 9.5C13.488 10.33 12.8186 11 11.9893 11Z" fill="#5D5F61"/>
</svg>
